# xmcd
#
# Track frame offsets: 
#        150
#        24490
#        41418
#        59916
#        78561
#        96380
#        117734
#        142743
#        161556
#        182751
#        195169
#        218582
#        237213
#        254441
#        276177
#        299048
#        321797
#
# Disc length: 4527 seconds
#
# Revision: 0
# Processed by: cddbd v1.5.2PL0 Copyright (c) Steve Scherf et al.
# Submitted via: ExactAudioCopyFreeDBPlugin 1.0
#
DISCID=fe11ad11
DTITLE=チューリップ - Tulip おいしい曲すべて 1972-2006 ～Mature Days [CD2]
DYEAR=2006
DGENRE=JPop
TTITLE0=もっと幸せに素直になれたら
TTITLE1=Route 134
TTITLE2=OUR SONG
TTITLE3=涙のパーティー
TTITLE4=くちづけのネックレス
TTITLE5=モーニング・スコール
TTITLE6=抱きあって
TTITLE7=まっ赤な花と水平線
TTITLE8=ストロベリー・スマイル
TTITLE9=Well (Mr.Good-bye)
TTITLE10=サボテンの花
TTITLE11=We believe in Magic
TTITLE12=シェア
TTITLE13=この愛は忘れていいよ
TTITLE14=あなたのいる世界
TTITLE15=hope
TTITLE16=青春の影 (2006 Anniversary Mix)
EXTD=YEAR: 2006
EXTT0=
EXTT1=
EXTT2=
EXTT3=
EXTT4=
EXTT5=
EXTT6=
EXTT7=
EXTT8=
EXTT9=
EXTT10=
EXTT11=
EXTT12=
EXTT13=
EXTT14=
EXTT15=
EXTT16=
PLAYORDER=
